M48
; DRILL file KiCad 10.0.0 date 2026-06-02T22:54:20
; FORMAT={-:-/ absolute / metric / decimal}
; #@! TF.CreationDate,2026-06-02T22:54:20+02:00
; #@! TF.GenerationSoftware,Kicad,Pcbnew,10.0.0
; #@! TF.FileFunction,Plated,1,2,PTH
FMAT,2
METRIC
; #@! TA.AperFunction,Plated,PTH,ViaDrill
T1C0.300
; #@! TA.AperFunction,Plated,PTH,ComponentDrill
T2C0.900
; #@! TA.AperFunction,Plated,PTH,ComponentDrill
T3C1.000
%
G90
G05
T1
X72.0Y-101.0
X77.0Y-96.0
X78.5Y-66.5
X79.0Y-92.0
X81.0Y-82.0
X86.5Y-94.5
X88.0Y-101.0
X89.5Y-55.0
X90.0Y-71.5
X90.0Y-94.5
X115.5Y-59.0
X116.0Y-71.5
X116.0Y-77.5
X116.0Y-84.0
X116.0Y-96.5
X118.0Y-87.0
T3
X84.0Y-83.73
X84.0Y-86.27
X94.045Y-53.72
X94.045Y-56.26
X94.045Y-58.8
X94.045Y-61.34
X94.045Y-63.88
X94.045Y-66.42
X94.045Y-68.96
X94.045Y-71.5
X94.045Y-74.04
X94.045Y-76.58
X94.045Y-79.12
X94.045Y-81.66
X94.045Y-84.2
X94.045Y-86.74
X94.045Y-89.28
X94.045Y-91.82
X94.045Y-94.36
X94.045Y-96.9
X94.045Y-99.44
X94.045Y-101.98
X111.825Y-53.72
X111.825Y-56.26
X111.825Y-58.8
X111.825Y-61.34
X111.825Y-63.88
X111.825Y-66.42
X111.825Y-68.96
X111.825Y-71.5
X111.825Y-74.04
X111.825Y-76.58
X111.825Y-79.12
X111.825Y-81.66
X111.825Y-84.2
X111.825Y-86.74
X111.825Y-89.28
X111.825Y-91.82
X111.825Y-94.36
X111.825Y-96.9
X111.825Y-99.44
X111.825Y-101.98
X118.5Y-58.8
X118.5Y-61.34
X118.5Y-63.88
X118.5Y-66.42
X118.5Y-68.96
X118.5Y-71.5
X118.5Y-74.04
X118.5Y-76.58
X118.5Y-79.12
X118.5Y-89.92
X118.5Y-92.46
X118.5Y-95.0
X118.5Y-97.54
T2
G00X74.5Y-100.2
M15
G01X74.5Y-101.8
M16
G05
G00X85.9Y-100.2
M15
G01X85.9Y-101.8
M16
G05
M30
